<svg height="320" width="320" shapeRendering="crispEdges" viewBox="0 0 25 25" style="width: 320px; height: 320px;"><path fill="#fff" d="M0,0 h25v25H0z" style="--darkreader-inline-fill: #e8e6e3;" data-darkreader-inline-fill=""></path><path fill="#000" d="M0 0h7v1H0zM8 0h2v1H8zM13 0h1v1H13zM16 0h1v1H16zM18,0 h7v1H18zM0 1h1v1H0zM6 1h1v1H6zM13 1h1v1H13zM16 1h1v1H16zM18 1h1v1H18zM24,1 h1v1H24zM0 2h1v1H0zM2 2h3v1H2zM6 2h1v1H6zM8 2h1v1H8zM11 2h6v1H11zM18 2h1v1H18zM20 2h3v1H20zM24,2 h1v1H24zM0 3h1v1H0zM2 3h3v1H2zM6 3h1v1H6zM8 3h2v1H8zM11 3h5v1H11zM18 3h1v1H18zM20 3h3v1H20zM24,3 h1v1H24zM0 4h1v1H0zM2 4h3v1H2zM6 4h1v1H6zM8 4h4v1H8zM13 4h4v1H13zM18 4h1v1H18zM20 4h3v1H20zM24,4 h1v1H24zM0 5h1v1H0zM6 5h1v1H6zM9 5h1v1H9zM13 5h2v1H13zM16 5h1v1H16zM18 5h1v1H18zM24,5 h1v1H24zM0 6h7v1H0zM8 6h1v1H8zM10 6h1v1H10zM12 6h1v1H12zM14 6h1v1H14zM16 6h1v1H16zM18,6 h7v1H18zM9 7h1v1H9zM11 7h2v1H11zM15 7h2v1H15zM0 8h4v1H0zM6 8h1v1H6zM8 8h1v1H8zM15 8h3v1H15zM20 8h3v1H20zM24,8 h1v1H24zM3 9h1v1H3zM5 9h1v1H5zM7 9h3v1H7zM11 9h1v1H11zM13 9h1v1H13zM19 9h1v1H19zM23 9h1v1H23zM0 10h1v1H0zM3 10h6v1H3zM11 10h1v1H11zM13 10h1v1H13zM17 10h2v1H17zM20 10h1v1H20zM2 11h3v1H2zM7 11h1v1H7zM13 11h2v1H13zM17 11h1v1H17zM21 11h2v1H21zM0 12h1v1H0zM6 12h1v1H6zM9 12h1v1H9zM11 12h1v1H11zM13 12h2v1H13zM17 12h4v1H17zM22,12 h3v1H22zM5 13h1v1H5zM7 13h1v1H7zM9 13h2v1H9zM12 13h9v1H12zM24,13 h1v1H24zM1 14h3v1H1zM6 14h1v1H6zM8 14h2v1H8zM12 14h3v1H12zM16 14h3v1H16zM20 14h1v1H20zM22 14h2v1H22zM0 15h1v1H0zM4 15h2v1H4zM8 15h1v1H8zM10 15h1v1H10zM14 15h1v1H14zM19 15h2v1H19zM24,15 h1v1H24zM2 16h2v1H2zM5 16h5v1H5zM11 16h3v1H11zM16,16 h9v1H16zM8 17h2v1H8zM11 17h1v1H11zM13 17h4v1H13zM20 17h1v1H20zM22 17h1v1H22zM24,17 h1v1H24zM0 18h7v1H0zM9 18h1v1H9zM12 18h2v1H12zM16 18h1v1H16zM18 18h1v1H18zM20 18h1v1H20zM22,18 h3v1H22zM0 19h1v1H0zM6 19h1v1H6zM9 19h1v1H9zM12 19h1v1H12zM14 19h3v1H14zM20 19h1v1H20zM23 19h1v1H23zM0 20h1v1H0zM2 20h3v1H2zM6 20h1v1H6zM9 20h3v1H9zM16 20h6v1H16zM23,20 h2v1H23zM0 21h1v1H0zM2 21h3v1H2zM6 21h1v1H6zM8 21h1v1H8zM10 21h2v1H10zM14 21h1v1H14zM17 21h2v1H17zM20,21 h5v1H20zM0 22h1v1H0zM2 22h3v1H2zM6 22h1v1H6zM8 22h1v1H8zM11 22h1v1H11zM13 22h3v1H13zM18 22h1v1H18zM20 22h1v1H20zM22 22h2v1H22zM0 23h1v1H0zM6 23h1v1H6zM8 23h3v1H8zM13 23h1v1H13zM15 23h1v1H15zM18 23h1v1H18zM20 23h1v1H20zM22 23h1v1H22zM0 24h7v1H0zM8 24h1v1H8zM11 24h1v1H11zM13 24h1v1H13zM17,24 h8v1H17z" style="--darkreader-inline-fill: #e8e6e3;" data-darkreader-inline-fill=""></path></svg>