<svg height="320" width="320" shapeRendering="crispEdges" viewBox="0 0 25 25" style="width: 320px; height: 320px;"><path fill="#fff" d="M0,0 h25v25H0z" style="--darkreader-inline-fill: #e8e6e3;" data-darkreader-inline-fill=""></path><path fill="#000" d="M0 0h7v1H0zM9 0h1v1H9zM13 0h1v1H13zM16 0h1v1H16zM18,0 h7v1H18zM0 1h1v1H0zM6 1h1v1H6zM8 1h2v1H8zM11 1h6v1H11zM18 1h1v1H18zM24,1 h1v1H24zM0 2h1v1H0zM2 2h3v1H2zM6 2h1v1H6zM9 2h3v1H9zM14 2h1v1H14zM18 2h1v1H18zM20 2h3v1H20zM24,2 h1v1H24zM0 3h1v1H0zM2 3h3v1H2zM6 3h1v1H6zM8 3h2v1H8zM11 3h5v1H11zM18 3h1v1H18zM20 3h3v1H20zM24,3 h1v1H24zM0 4h1v1H0zM2 4h3v1H2zM6 4h1v1H6zM10 4h1v1H10zM12 4h2v1H12zM16 4h1v1H16zM18 4h1v1H18zM20 4h3v1H20zM24,4 h1v1H24zM0 5h1v1H0zM6 5h1v1H6zM8 5h1v1H8zM10 5h1v1H10zM14 5h2v1H14zM18 5h1v1H18zM24,5 h1v1H24zM0 6h7v1H0zM8 6h1v1H8zM10 6h1v1H10zM12 6h1v1H12zM14 6h1v1H14zM16 6h1v1H16zM18,6 h7v1H18zM14 7h1v1H14zM16 7h1v1H16zM0 8h5v1H0zM6 8h5v1H6zM13 8h1v1H13zM17 8h1v1H17zM19 8h1v1H19zM21 8h1v1H21zM23 8h1v1H23zM2 9h1v1H2zM4 9h2v1H4zM8 9h2v1H8zM11 9h3v1H11zM19 9h1v1H19zM23 9h1v1H23zM0 10h1v1H0zM2 10h1v1H2zM4 10h3v1H4zM9 10h1v1H9zM13 10h3v1H13zM21 10h1v1H21zM23,10 h2v1H23zM0 11h1v1H0zM3 11h1v1H3zM5 11h1v1H5zM8 11h3v1H8zM14 11h6v1H14zM24,11 h1v1H24zM2 12h1v1H2zM6 12h4v1H6zM13 12h1v1H13zM17 12h4v1H17zM22,12 h3v1H22zM0 13h2v1H0zM3 13h2v1H3zM7 13h1v1H7zM9 13h4v1H9zM14 13h1v1H14zM16 13h1v1H16zM19 13h1v1H19zM21 13h1v1H21zM23 13h1v1H23zM0 14h1v1H0zM3 14h1v1H3zM6 14h1v1H6zM8 14h2v1H8zM13 14h1v1H13zM15 14h1v1H15zM17 14h1v1H17zM19 14h3v1H19zM23,14 h2v1H23zM0 15h1v1H0zM2 15h2v1H2zM7 15h1v1H7zM10 15h2v1H10zM19 15h2v1H19zM24,15 h1v1H24zM0 16h1v1H0zM2 16h1v1H2zM4 16h5v1H4zM13 16h8v1H13zM22 16h1v1H22zM8 17h5v1H8zM16 17h1v1H16zM20 17h2v1H20zM0 18h7v1H0zM8 18h3v1H8zM12 18h2v1H12zM16 18h1v1H16zM18 18h1v1H18zM20 18h1v1H20zM22,18 h3v1H22zM0 19h1v1H0zM6 19h1v1H6zM9 19h4v1H9zM16 19h1v1H16zM20 19h2v1H20zM24,19 h1v1H24zM0 20h1v1H0zM2 20h3v1H2zM6 20h1v1H6zM8 20h2v1H8zM12 20h9v1H12zM22 20h2v1H22zM0 21h1v1H0zM2 21h3v1H2zM6 21h1v1H6zM8 21h4v1H8zM17 21h2v1H17zM20,21 h5v1H20zM0 22h1v1H0zM2 22h3v1H2zM6 22h1v1H6zM8 22h1v1H8zM10 22h1v1H10zM12 22h3v1H12zM17 22h1v1H17zM21 22h2v1H21zM24,22 h1v1H24zM0 23h1v1H0zM6 23h1v1H6zM8 23h2v1H8zM11 23h2v1H11zM16 23h1v1H16zM19 23h3v1H19zM24,23 h1v1H24zM0 24h7v1H0zM8 24h1v1H8zM12 24h3v1H12zM17,24 h8v1H17z" style="--darkreader-inline-fill: #e8e6e3;" data-darkreader-inline-fill=""></path></svg>