<svg height="320" width="320" shapeRendering="crispEdges" viewBox="0 0 25 25" style="width: 320px; height: 320px;"><path fill="#fff" d="M0,0 h25v25H0z" style="--darkreader-inline-fill: #e8e6e3;" data-darkreader-inline-fill=""></path><path fill="#000" d="M0 0h7v1H0zM10 0h1v1H10zM13 0h3v1H13zM18,0 h7v1H18zM0 1h1v1H0zM6 1h1v1H6zM9 1h1v1H9zM14 1h3v1H14zM18 1h1v1H18zM24,1 h1v1H24zM0 2h1v1H0zM2 2h3v1H2zM6 2h1v1H6zM8 2h1v1H8zM11 2h1v1H11zM15 2h2v1H15zM18 2h1v1H18zM20 2h3v1H20zM24,2 h1v1H24zM0 3h1v1H0zM2 3h3v1H2zM6 3h1v1H6zM9 3h1v1H9zM14 3h2v1H14zM18 3h1v1H18zM20 3h3v1H20zM24,3 h1v1H24zM0 4h1v1H0zM2 4h3v1H2zM6 4h1v1H6zM9 4h1v1H9zM12 4h4v1H12zM18 4h1v1H18zM20 4h3v1H20zM24,4 h1v1H24zM0 5h1v1H0zM6 5h1v1H6zM10 5h6v1H10zM18 5h1v1H18zM24,5 h1v1H24zM0 6h7v1H0zM8 6h1v1H8zM10 6h1v1H10zM12 6h1v1H12zM14 6h1v1H14zM16 6h1v1H16zM18,6 h7v1H18zM8 7h1v1H8zM11 7h1v1H11zM13 7h2v1H13zM16 7h1v1H16zM0 8h3v1H0zM4 8h5v1H4zM11 8h1v1H11zM13 8h6v1H13zM22 8h1v1H22zM0 9h4v1H0zM5 9h1v1H5zM8 9h2v1H8zM17 9h2v1H17zM24,9 h1v1H24zM0 10h2v1H0zM3 10h1v1H3zM6 10h2v1H6zM10 10h1v1H10zM12 10h2v1H12zM16 10h1v1H16zM20 10h1v1H20zM22,10 h3v1H22zM0 11h2v1H0zM3 11h1v1H3zM9 11h3v1H9zM13 11h4v1H13zM23 11h1v1H23zM0 12h1v1H0zM3 12h1v1H3zM5 12h3v1H5zM10 12h4v1H10zM15 12h5v1H15zM21 12h1v1H21zM23,12 h2v1H23zM1 13h3v1H1zM5 13h1v1H5zM8 13h1v1H8zM10 13h1v1H10zM12 13h1v1H12zM16 13h3v1H16zM21 13h1v1H21zM24,13 h1v1H24zM0 14h1v1H0zM3 14h1v1H3zM5 14h2v1H5zM8 14h3v1H8zM16 14h2v1H16zM19 14h1v1H19zM22,14 h3v1H22zM1 15h2v1H1zM5 15h1v1H5zM7 15h1v1H7zM10 15h1v1H10zM13 15h2v1H13zM17 15h2v1H17zM20 15h1v1H20zM23 15h1v1H23zM0 16h1v1H0zM4 16h1v1H4zM6 16h1v1H6zM8 16h1v1H8zM10 16h4v1H10zM16 16h6v1H16zM8 17h1v1H8zM10 17h1v1H10zM12 17h3v1H12zM16 17h1v1H16zM20 17h2v1H20zM23,17 h2v1H23zM0 18h7v1H0zM8 18h1v1H8zM13 18h4v1H13zM18 18h1v1H18zM20 18h2v1H20zM23,18 h2v1H23zM0 19h1v1H0zM6 19h1v1H6zM8 19h2v1H8zM11 19h3v1H11zM16 19h1v1H16zM20 19h2v1H20zM23 19h1v1H23zM0 20h1v1H0zM2 20h3v1H2zM6 20h1v1H6zM8 20h1v1H8zM10 20h1v1H10zM13 20h2v1H13zM16 20h6v1H16zM23 20h1v1H23zM0 21h1v1H0zM2 21h3v1H2zM6 21h1v1H6zM9 21h1v1H9zM12 21h3v1H12zM19 21h4v1H19zM0 22h1v1H0zM2 22h3v1H2zM6 22h1v1H6zM8 22h2v1H8zM15 22h3v1H15zM20 22h1v1H20zM24,22 h1v1H24zM0 23h1v1H0zM6 23h1v1H6zM8 23h1v1H8zM11 23h1v1H11zM13 23h1v1H13zM16 23h3v1H16zM20 23h2v1H20zM23 23h1v1H23zM0 24h7v1H0zM8 24h4v1H8zM13 24h1v1H13zM15 24h5v1H15zM23,24 h2v1H23z" style="--darkreader-inline-fill: #e8e6e3;" data-darkreader-inline-fill=""></path></svg>